<?xml version="1.0" encoding="UTF-8" standalone="no"?>
<svg xmlns="http://www.w3.org/2000/svg" width="32" height="32"><rect id="backgroundrect" width="100%" height="100%" x="0" y="0" fill="none" stroke="none"/>
 <title>map2</title>
 <g class="currentLayer">
  <title>Layer 1</title>
  <path id="svg_1" d="m21,6l-10,-4l-11,4l0,24l11,-4l10,4l11,-4l0,-24m-20,2.554l8,3.2l0,19.692l-8,-3.2l0,-19.692zm-10,2.847l8,-2.909l0,19.744l-8,2.909l0,-19.744zm28,17.198l-8,2.909l0,-19.744l8,-2.909l0,19.744z" fill="#ffffff"/>
  <rect id="svg_11" height="17.519966928263475" width="20.616931658875775" y="1.931416985065809" x="7.877288483441303" fill-opacity="1" stroke-opacity="null" stroke-width="null" fill="#ffffff" stroke="null" class=""/>
  <g stroke="null" id="svg_8" class="" >
   <path stroke="null" id="svg_5" d="m27.828499541229377,2.3362714614206372 c0.0006919747161865238,0.0006919747161865238 0.0020759241485595707,0.0013839494323730475 0.002767898864746095,0.002767898864746095 l0,16.603122715942384 c-0.0006919747161865238,0.0006919747161865238 -0.0013839494323730475,0.0020759241485595707 -0.002767898864746095,0.002767898864746095 l-19.371116197639466,0 c-0.0006919747161865238,-0.0006919747161865238 -0.0020759241485595707,-0.0013839494323730475 -0.002767898864746095,-0.002767898864746095 l0,-16.603122715942384 c0.0006919747161865238,-0.0006919747161865238 0.0013839494323730475,-0.0020759241485595707 0.002767898864746095,-0.002767898864746095 l19.371116197639466,0 zm0.002767898864746095,-1.3839974469451903 l-19.375960020652773,0 c-0.7611990194778443,0 -1.3839974469451903,0.6227984274673463 -1.3839974469451903,1.3839974469451903 l0,16.607966538955687 c0,0.7611990194778443 0.6227984274673463,1.3839974469451903 1.3839974469451903,1.3839974469451903 l19.375960020652773,0 c0.7611990194778443,0 1.3839974469451903,-0.6227984274673463 1.3839974469451903,-1.3839974469451903 l0,-16.607966538955687 c0,-0.7611990194778443 -0.6227984274673463,-1.3839974469451903 -1.3839974469451903,-1.3839974469451903 l0,0 z" fill="#ffffff"/>
   <path stroke="null" id="svg_6" d="m25.06327254620374,5.796265078783613 c0,1.146641646133423 -0.929354524284363,2.0759961704177856 -2.0759961704177856,2.0759961704177856 s-2.0759961704177856,-0.929354524284363 -2.0759961704177856,-2.0759961704177856 s0.929354524284363,-2.0759961704177856 2.0759961704177856,-2.0759961704177856 s2.0759961704177856,0.929354524284363 2.0759961704177856,2.0759961704177856 z" />
   <path stroke="null" id="svg_7" d="m26.44726999314893,17.560240553431136 l-16.607966538955687,0 l0,-2.767994893890381 l4.843989652114868,-8.303983269477843 l5.535988375587464,6.919985822532654 l1.3839974469451903,0 l4.843989652114868,-4.151990928642273 l0,8.303983269477843 l0.0000014121932983398443,0 z" />
  </g>
  
 </g>
</svg>
